<?xml version="1.0" encoding="utf-8"?>
<!-- Generator: Adobe Illustrator 26.3.1, SVG Export Plug-In . SVG Version: 6.00 Build 0)  -->
<svg version="1.1" id="Layer_1" xmlns="http://www.w3.org/2000/svg" xmlns:xlink="http://www.w3.org/1999/xlink" x="0px" y="0px"
	 viewBox="0 0 792 612" style="enable-background:new 0 0 792 612;" xml:space="preserve">
<style type="text/css">
	.st0{fill:#4F83F1;}
	.st1{fill:#85B7ED;}
	.st2{fill:#00DEFA;}
	.st3{fill:#193A65;}
</style>
<g>
	<path class="st0" d="M93.5,234.5C49.7,244.7,17,284,17,331c0,46,31.4,84.7,73.9,95.9V257.1C90.9,249.3,91.8,241.8,93.5,234.5z"/>
	<path class="st1" d="M285.9,231.9C274.7,189.4,236,158,190,158c-47,0-86.3,32.7-96.5,76.5c7.3-1.7,14.8-2.6,22.6-2.6H285.9z"/>
	<path class="st2" d="M116.1,231.9c-7.8,0-15.4,0.9-22.6,2.6c-1.7,7.3-2.6,14.8-2.6,22.6v169.7c8.1,2.1,16.5,3.3,25.3,3.3h173v-173
		c0-8.7-1.1-17.2-3.3-25.3H116.1z"/>
</g>
<g>
	<g>
		<path class="st3" d="M448,324.4L448,324.4c-5.1-5-11-9-17.6-11.8c-6.9-2.8-14.1-4.3-21.4-4.3c-7.4,0-14.6,1.4-21.4,4.3
			c-6.7,2.8-12.6,6.8-17.6,11.8c-5.1,5.1-9.1,11-11.8,17.6c-2.8,6.9-4.3,14.1-4.3,21.4c0,7.4,1.4,14.6,4.3,21.4
			c2.7,6.7,6.7,12.6,11.8,17.6c5,5.1,10.9,9.1,17.6,11.8c6.9,2.8,14.1,4.3,21.4,4.3c7.4,0,14.6-1.4,21.4-4.3
			c6.6-2.7,12.5-6.7,17.6-11.8c5-5,9-10.9,11.8-17.6c2.8-6.9,4.3-14.1,4.3-21.4c0-7.4-1.4-14.6-4.3-21.5
			C457,335.4,453,329.5,448,324.4z M447.9,379.5c-2.1,5.1-5.2,9.6-9.3,13.6c-4,4-8.5,7.2-13.6,9.2c-5.1,2.1-10.5,3.1-16.1,3.1
			c-5.6,0-11.1-1.1-16.1-3.1c-5.1-2.1-9.6-5.2-13.6-9.3c-4.1-4-7.2-8.5-9.2-13.6c-2.1-5.1-3.1-10.5-3.1-16.1c0-5.6,1.1-11,3.1-16.1
			c2.1-5.1,5.2-9.6,9.3-13.6c4-4.1,8.5-7.2,13.6-9.2c5.1-2.1,10.5-3.1,16.1-3.1c5.6,0,11,1.1,16.1,3.1c5.1,2.1,9.6,5.2,13.6,9.2
			c4.1,4,7.2,8.5,9.2,13.6c2.1,5.1,3.1,10.5,3.1,16.1C451,369.1,450,374.5,447.9,379.5z"/>
		<polygon class="st3" points="527.5,340.4 511.1,340.4 495.5,361 495.5,311.6 482.4,311.6 482.4,415.3 495.5,415.3 495.5,382.8 
			495.6,382.6 520.1,415.3 536.7,415.3 503.8,371.6 		"/>
		<path class="st3" d="M611.8,349c-3.9-3.9-8.3-6.9-13.2-9c-4.9-2.1-10.2-3.1-15.6-3.1c-5.5,0-10.7,1.1-15.7,3.1
			c-5,2.1-9.4,5.1-13.1,8.9c-3.9,3.8-6.9,8.2-8.9,13.2c-2,5-3.1,10.2-3.1,15.7c0,5.4,1,10.7,3.1,15.6c2,4.9,5,9.4,8.9,13.2
			c3.8,3.8,8.2,6.7,13.1,8.8c5,2.1,10.2,3.1,15.7,3.1c5.5,0,10.7-1.1,15.6-3.1c4.9-2.1,9.3-5,13.2-8.8c4.1-4.1,7.2-8.8,9.3-14
			l0.8-2.1h-14.3l-0.4,0.8c-2.4,4.3-5.7,7.7-10,10.3c-4.3,2.6-9,3.9-14.2,3.9c-3.8,0-7.4-0.7-10.7-2.2c-3.3-1.5-6.3-3.4-8.8-5.9
			c-2.5-2.4-4.5-5.4-6-8.7c-1.3-2.9-2-5.9-2.2-9.2h68.4v-1.5c0-5.4-1-10.8-3.1-15.8C618.7,357.2,615.7,352.8,611.8,349z
			 M557.6,366.5c0.9-2,2-3.8,3.3-5.5c1.7-2.3,3.7-4.2,6-5.9c2.3-1.6,4.8-2.9,7.5-3.8c2.7-0.9,5.6-1.4,8.6-1.4c6,0,11.4,1.7,16,5.2
			c4.1,3,7.2,6.8,9.2,11.4H557.6z"/>
		<rect x="642.4" y="340.4" class="st3" width="13.1" height="74.9"/>
		<path class="st3" d="M648.9,306.1c-2.1,0-4,0.8-5.4,2.3c-1.4,1.5-2.1,3.3-2.1,5.4c0,2.1,0.7,3.9,2.2,5.4c1.4,1.4,3.2,2.2,5.4,2.2
			c2.1,0,3.9-0.7,5.4-2.1c1.5-1.4,2.3-3.3,2.3-5.4c0-2.1-0.8-4-2.2-5.4C652.9,306.9,651,306.1,648.9,306.1z"/>
		<path class="st3" d="M754,362.1c-2.1-4.9-5-9.4-8.8-13.3c-3.9-3.8-8.3-6.7-13.3-8.8c-5-2.1-10.2-3.1-15.7-3.1
			c-5.5,0-10.7,1.1-15.6,3.1c-4.9,2.1-9.3,5-13.2,8.8c-3.8,3.9-6.7,8.3-8.8,13.3c-2.1,5-3.1,10.2-3.1,15.7c0,5.4,1.1,10.6,3.1,15.5
			c2.1,4.9,5,9.4,8.8,13.3c3.9,3.8,8.3,6.7,13.2,8.8c4.9,2.1,10.2,3.1,15.6,3.1c5.4,0,10.7-1.1,15.7-3.1c5-2.1,9.4-5,13.3-8.8
			c3.8-3.9,6.7-8.3,8.8-13.3c2.1-5,3.1-10.2,3.1-15.5C757.1,372.4,756.1,367.1,754,362.1z M741.9,388.6c-1.5,3.4-3.5,6.3-6,8.8
			c-2.5,2.5-5.5,4.5-8.9,6c-3.3,1.4-7,2.2-10.8,2.2c-3.8,0-7.4-0.7-10.8-2.2c-3.4-1.5-6.3-3.4-8.8-5.9c-2.5-2.5-4.5-5.5-5.9-8.8
			c-1.4-3.3-2.2-7-2.2-10.8c0-3.8,0.7-7.5,2.2-10.8c1.4-3.4,3.4-6.4,5.9-8.9c2.5-2.5,5.5-4.5,8.8-5.9c3.3-1.4,7-2.2,10.8-2.2
			c3.8,0,7.4,0.7,10.8,2.2c3.4,1.5,6.4,3.5,8.9,6c2.5,2.5,4.6,5.5,6,8.9c1.4,3.4,2.2,7,2.2,10.8
			C744.1,381.6,743.3,385.2,741.9,388.6z"/>
	</g>
</g>
<image style="overflow:visible;" width="564" height="423" xlink:href="../../../private/var/folders/qd/gk1y8ynd4051vl6lb54rzn_40000gn/T/29e6d9b5edbe3181457220a8f4ae2c65.jpg"  transform="matrix(1 0 0 1 861.5917 45.0108)">
</image>
</svg>
