<?xml version="1.0" encoding="utf-8"?>
<!-- Generator: Adobe Illustrator 26.3.1, SVG Export Plug-In . SVG Version: 6.00 Build 0)  -->
<svg version="1.1" id="Layer_1" xmlns="http://www.w3.org/2000/svg" xmlns:xlink="http://www.w3.org/1999/xlink" x="0px" y="0px"
	 viewBox="0 0 400 400" style="enable-background:new 0 0 400 400;" xml:space="preserve">
<g>
	<path d="M8,96.5c0-3.3,0-6.5,0-9.8c0.1-0.2,0.4-0.4,0.4-0.6c5.1-20.3,17.5-30,38.4-30c102.1,0,204.2,0,306.3,0c1.4,0,2.8,0,4.1,0
		c15.3,0.9,26.1,8.4,32.2,22.4c1.1,2.6,1.7,5.4,2.5,8.1c0,3.3,0,6.5,0,9.8c-0.9,2.8-1.6,5.7-2.7,8.5c-5.7,14-18.4,21.9-35.2,21.9
		c-64.4,0-128.7,0-193.1,0c-38.4,0-76.7-0.1-115.1,0c-10.6,0-19.9-3-27.6-10.5C12.7,110.9,9.9,104,8,96.5z"/>
	<path d="M8,313.3c0-3.3,0-6.5,0-9.8c0.6-2.1,1.2-4.3,1.9-6.4c5.2-15.3,18.4-24,36.3-24c102.5,0,205.1,0,307.6,0c2,0,4,0.1,6,0.3
		c14.4,1.1,26.8,11.3,30.7,25.2c0.5,1.7,1,3.3,1.5,4.9c0,3.3,0,6.5,0,9.8c-0.1,0.2-0.4,0.4-0.4,0.6c-5.1,20.3-17.5,30-38.4,30
		c-95.1,0-190.2,0-285.3,0c-7.9,0-15.7,0.1-23.6,0c-11.2-0.1-20.6-4.2-28-12.8C11.7,325.9,9.7,319.7,8,313.3z"/>
	<path d="M8,205.2c0-3.5,0-7,0-10.5c0.2-0.2,0.4-0.3,0.5-0.5c5.4-20.3,17.4-29.5,38.4-29.5c79.1,0,158.2,0,237.3,0
		c24.4,0,48.7-0.1,73.1,0.1c15.1,0.1,28.1,9.7,32.9,24c0.8,2.2,1.3,4.5,1.9,6.8c0,3,0,6,0,9c-0.1,0.3-0.3,0.7-0.4,1
		c-5.8,21.1-17.3,29.8-39.2,29.8c-64.6,0-129.2,0-193.8,0c-38.1,0-76.2,0-114.3,0c-16.2,0-29.4-9.4-34.4-24.1
		C9.2,209.2,8.6,207.2,8,205.2z"/>
</g>
</svg>
