<?xml version="1.0" encoding="utf-8"?>
<!-- Generator: Adobe Illustrator 26.3.1, SVG Export Plug-In . SVG Version: 6.00 Build 0)  -->
<svg version="1.1" id="Layer_1" xmlns="http://www.w3.org/2000/svg" xmlns:xlink="http://www.w3.org/1999/xlink" x="0px" y="0px"
	 viewBox="0 0 400 400" style="enable-background:new 0 0 400 400;" xml:space="preserve">
<g>
	<path d="M185.9,38.2c6.7,0,13.4,0,20.2,0c5.5,0.7,11,1.2,16.5,2.2c30.3,5.2,57.1,17.8,80.1,38.3c28.1,25,45.6,56,52.2,93.1
		c1,5.9,1.7,11.8,2.5,17.7c0,6.7,0,13.4,0,20.2c-0.2,0.8-0.5,1.6-0.5,2.4c-1.9,24.9-9,48.2-22,69.5c-25.6,42-62.6,67.8-111,76.9
		c-5.8,1.1-11.8,1.7-17.7,2.5c-6.7,0-13.4,0-20.2,0c-3.9-0.5-7.9-0.9-11.8-1.5c-32.1-4.6-60.5-17.5-84.7-39
		c-28-24.9-45.5-55.8-52.2-92.8c-1.1-6-1.7-12-2.5-18c0-6.7,0-13.4,0-20.2c0.5-3.9,0.9-7.9,1.5-11.8c5.1-35.2,19.9-65.6,44.8-91
		c24.2-24.6,53.3-40,87.3-46C174.1,39.6,180,39,185.9,38.2z M233.8,237.3c1.5,0,2.6,0,3.8,0c17.1,0,34.2,0,51.4,0
		c7.3,0,11-3.7,11-11.1c0-17.9,0-35.7,0-53.6c0-7.3-3.7-11-11.1-11c-17.2,0-34.5,0-51.7,0c-1.1,0-2.2,0-3.4,0c0-18.8,0-37,0-55.3
		c0-7.1-3.7-10.8-10.9-10.8c-17.9,0-35.7,0-53.6,0c-7.6,0-11.2,3.6-11.2,11.2c0,17.1,0,34.2,0,51.4c0,1.1,0,2.2,0,3.6
		c-1.5,0-2.6,0-3.8,0c-17.1,0-34.2,0-51.4,0c-7.4,0-11,3.7-11,11c0,17.9,0,35.7,0,53.6c0,7.3,3.7,11,11,11c17.2,0,34.5,0,51.7,0
		c1.1,0,2.2,0,3.4,0c0,1.6,0,2.8,0,3.9c0,17.3,0,34.7,0,52c0,6,3.8,10.2,9.6,10.2c18.8,0.1,37.6,0.1,56.4,0c5.7,0,9.5-4.1,9.6-9.9
		c0.1-9.3,0-18.7,0-28C233.8,256.3,233.8,247,233.8,237.3z"/>
	<path d="M177.1,284.4c0-18.2,0-36.1,0-54.1c0-1.3,0.1-2.5-0.1-3.8c-0.7-4.9-4.7-8.1-10.1-8.1c-17.4,0-34.9,0-52.3,0
		c-1.1,0-2.3,0-3.5,0c0-12.6,0-25,0-37.8c1.1,0,2.2,0,3.3,0c17.2,0,34.4,0,51.7,0c7.4,0,11.1-3.6,11.1-11c0-17.1,0-34.2,0-51.3
		c0-1.1,0-2.3,0-3.6c12.6,0,25,0,37.8,0c0,1.1,0,2.3,0,3.4c0,17.1,0,34.2,0,51.3c0,7.6,3.6,11.2,11.1,11.2c17.1,0,34.2,0,51.3,0
		c1.1,0,2.3,0,3.5,0c0,12.6,0,25,0,37.8c-1.1,0-2.2,0-3.3,0c-17.2,0-34.4,0-51.7,0c-7.4,0-11.1,3.6-11.1,11c0,17.1,0,34.2,0,51.3
		c0,1.1,0,2.3,0,3.6C202.3,284.4,189.9,284.4,177.1,284.4z"/>
</g>
</svg>
