<?xml version="1.0" encoding="utf-8"?>
<!-- Generator: Adobe Illustrator 26.3.1, SVG Export Plug-In . SVG Version: 6.00 Build 0)  -->
<svg version="1.1" id="Layer_1" xmlns="http://www.w3.org/2000/svg" xmlns:xlink="http://www.w3.org/1999/xlink" x="0px" y="0px"
	 viewBox="0 0 183.2 177" style="enable-background:new 0 0 183.2 177;" xml:space="preserve">
<g>
	<path d="M101.3,24.2c-24.8,0-49.4,0-74.1,0c0,43.7,0,87.4,0,131.1c24.7,0,49.2,0,74.1,0c0-2.8,0-5.7,0-8.5
		c0.1-6.3,6.5-10.4,12.1-7.8c2.7,1.3,4.7,3.4,4.8,6.4c0.3,5,0.5,10-0.1,14.9c-0.9,7.3-6.9,12.1-14.3,12.1c-19,0-37.9,0-56.9,0
		c-7.4,0-14.7,0-22.1,0c-8.8,0-14.9-6.1-14.9-15c0-45.2,0-90.4,0-135.6c0-8.9,6.1-15,15-15c26.2,0,52.3,0,78.5,0
		c8.8,0,14.9,6.1,15,14.9c0,3.5,0,7,0,10.5c0,5-3.8,8.8-8.6,8.8c-4.8,0-8.5-3.8-8.5-8.8C101.3,29.8,101.3,27.1,101.3,24.2z"/>
	<path d="M146.2,98.4c-1.1,0-1.7,0-2.4,0c-30.1,0-60.3,0-90.4,0c-5.4,0-9.3-3.7-9.2-8.8c0.1-4.4,3.6-8.1,8-8.3c0.7,0,1.3,0,2,0
		c29.9,0,59.8,0,89.7,0c0.6,0,1.3,0,2.2,0c-0.6-0.6-0.9-1.1-1.3-1.5c-5.4-5.4-10.8-10.7-16.1-16.2c-4.6-4.7-2.8-12.3,3.4-14.2
		c3.4-1,6.4-0.1,9,2.4c6.1,6.1,12.2,12.2,18.3,18.3c4.4,4.4,8.8,8.8,13.2,13.2c3.9,3.9,3.9,8.9,0.1,12.8
		c-10.5,10.6-21.1,21.1-31.7,31.7c-4.9,4.9-12.6,3.2-14.5-3.2c-1.1-3.4-0.1-6.4,2.4-9c5.3-5.2,10.5-10.5,15.8-15.8
		C145.1,99.5,145.5,99.1,146.2,98.4z"/>
</g>
</svg>
