<?xml version="1.0" encoding="utf-8"?>
<!-- Generator: Adobe Illustrator 26.3.1, SVG Export Plug-In . SVG Version: 6.00 Build 0)  -->
<svg version="1.1" id="Layer_1" xmlns="http://www.w3.org/2000/svg" xmlns:xlink="http://www.w3.org/1999/xlink" x="0px" y="0px"
	 viewBox="0 0 183.2 224.4" style="enable-background:new 0 0 183.2 224.4;" xml:space="preserve">
<g>
	<path d="M8.8,218.4c-4-1.2-7.2-3.6-8.3-7.9c-2-7.2,2.8-13.1,9.9-13.1c15.9,0,31.8,0,47.7,0c37.7,0,75.1,0,112.8,0
		c6.8,0,11.9,5.2,11.1,11.9c-0.4,4-2.8,6.8-6.8,7.9c-0.8,0.4-1.6,0.4-2.4,0.8C118.5,218.4,63.6,218.4,8.8,218.4z"/>
	<path d="M183.2,46.7c0,10.7-4,20.3-11.5,27.8c-31.4,31.4-62.8,62.8-93.8,93.8c-4.4,4.4-9.5,6.4-15.5,7.5
		c-12.3,2.4-24.2,4.8-36.6,7.2c-11.9,2.4-24.2-6.4-25.8-18.3c-0.8-5.6,0.8-10.7,2-15.9c2-9.9,4-19.9,6.4-29.8
		c1.2-5.2,3.2-9.1,6.8-13.1c31.4-31.4,62.8-63.2,94.2-94.6c15.5-15.5,40.9-15.1,56,0.8c2.4,2.4,4.8,4.8,7.2,7.5
		C180.1,27.3,183.2,36.4,183.2,46.7z M21.5,162c0.8,0,1.2,0,1.6,0c12.3-2,24.6-4,37-6.4c0.8,0,2-0.8,2.4-1.2
		c31.4-31.4,62.4-62.8,93.8-94.2c7.5-7.5,7.5-17.5,0-25c-2.8-2.8-5.2-5.2-7.9-7.9c-6.8-6.8-17.9-6.8-24.6,0
		C92.2,58.7,61.2,90.1,29.9,121c-0.4,0.4-1.2,1.2-1.2,2C26.7,135.7,24.3,148.9,21.5,162z"/>
</g>
</svg>
