<?xml version="1.0" encoding="utf-8"?>
<!-- Generator: Adobe Illustrator 26.3.1, SVG Export Plug-In . SVG Version: 6.00 Build 0)  -->
<svg version="1.1" id="Layer_1" xmlns="http://www.w3.org/2000/svg" xmlns:xlink="http://www.w3.org/1999/xlink" x="0px" y="0px"
	 viewBox="0 0 183.2 110" style="enable-background:new 0 0 183.2 110;" xml:space="preserve">
<g>
	<path d="M164.3,51.9c-1.2-1.6-28.7-40.3-72.7-40.3c-37.7,0-71,38.3-72.4,39.9c-1.5,1.8-1.5,4.3,0,6.1c1.4,1.6,34.7,39.9,72.4,39.9
		c37.6,0,71-38.3,72.4-39.9C165.4,56,165.5,53.7,164.3,51.9z M154.1,54.3c-8.9,9.2-35,33.8-62.5,33.8c-27.3,0-53.3-24.3-62.3-33.6
		C38.3,45.3,64.3,21,91.6,21C123.5,21,146.5,45.1,154.1,54.3z"/>
	<path d="M91.6,29.3c-14.2,0-25.7,11.4-25.7,25.3c0,14,11.5,25.3,25.7,25.3c14.2,0,25.7-11.4,25.7-25.3
		C117.3,40.6,105.8,29.3,91.6,29.3z M107.8,54.6c0,8.8-7.2,15.9-16.1,15.9s-16.1-7.1-16.1-15.9s7.2-15.9,16.1-15.9
		S107.8,45.8,107.8,54.6z"/>
</g>
</svg>
