<?xml version="1.0" encoding="utf-8"?>
<!-- Generator: Adobe Illustrator 26.3.1, SVG Export Plug-In . SVG Version: 6.00 Build 0)  -->
<svg version="1.1" id="Layer_1" xmlns="http://www.w3.org/2000/svg" xmlns:xlink="http://www.w3.org/1999/xlink" x="0px" y="0px"
	 viewBox="0 0 400 400" style="enable-background:new 0 0 400 400;" xml:space="preserve">
<g>
	<path d="M361.7,126.1c-1.1,6.5-1.7,13.1-3.3,19.5c-2.9,12.2-8.7,23-16.8,32.5c-5.5,6.5-11.5,12.6-17.2,19c-1.2,1.3-2.1,1.6-3.8,1
		c-16-6.4-32.5-8.4-49.6-5.7c-14.9,2.4-28.4,8.2-40.6,17.1c-1.7,1.2-3.3,2.5-4.7,3.6c-26.7-26.7-53.3-53.3-80.2-80.2
		c1.1-0.9,2.4-2,3.6-3.1c21.7-21.7,43.4-43.3,65.1-65c10.3-10.3,22.1-18.2,36.1-22.4c6.2-1.8,12.7-2.8,19.1-4.1c4.4,0,8.9,0,13.3,0
		c7.9,1.9,16.2,2.9,23.8,5.8c26.9,10.4,44.3,29.8,52,57.6c1.8,6.3,2.2,13,3.3,19.5C361.7,122.7,361.7,124.4,361.7,126.1z"/>
	<path d="M361.7,289.2c-1.6,7.6-2.2,15.5-5,22.7c-10.5,27.4-30.7,43.5-59.5,48.7c-0.5,0.1-1,0-1.8,0c0-49.6,0-99.3,0-149.7
		c4.8,1.2,9.6,2,14,3.5c27.4,9.7,44.3,28.9,50.7,57.2c0.8,3.7,1.1,7.5,1.6,11.2C361.7,284.9,361.7,287.1,361.7,289.2z"/>
	<path d="M132.3,146.8c26.5,26.7,52.9,53.4,79.3,80c-3.3,5.3-6.9,10.4-9.9,16c-12.9,24.7-14.3,50.2-4.8,76.3
		c1.2,3.2,0.9,5.1-1.6,7.3c-7.3,6.5-13.9,13.9-21.7,19.7c-18.4,13.5-39.3,18.1-61.9,14.8c-24.4-3.6-43.8-15.5-58-35.6
		c-12.8-18.1-17.5-38.4-14.6-60.5c2.5-19.4,11.1-35.8,24.8-49.6c22.1-22.2,44.4-44.4,66.5-66.6C130.9,148,131.4,147.6,132.3,146.8z"
		/>
	<path d="M276.1,211.6c0,49.6,0,99.1,0,149.3c-23.3-3.5-41.8-14.5-54.2-34.3c-16.2-26-16.4-52.9-1.1-79.5
		C233.7,224.6,258.4,212.4,276.1,211.6z"/>
</g>
</svg>
