<?xml version="1.0" encoding="utf-8"?>
<!-- Generator: Adobe Illustrator 26.3.1, SVG Export Plug-In . SVG Version: 6.00 Build 0)  -->
<svg version="1.1" id="Layer_1" xmlns="http://www.w3.org/2000/svg" xmlns:xlink="http://www.w3.org/1999/xlink" x="0px" y="0px"
	 viewBox="0 0 183.2 224.4" style="enable-background:new 0 0 183.2 224.4;" xml:space="preserve">
<g>
	<path d="M116.1,169.9c2.9,0,4.9-2.3,4.9-4.9V94c0-2.6-2.3-4.9-4.9-4.9c-2.9,0-4.9,2.3-4.9,4.9V165
		C111.2,167.6,113.5,169.9,116.1,169.9z"/>
	<path d="M71.1,169.9c2.9,0,4.9-2.3,4.9-4.9V94c0-2.6-2.3-4.9-4.9-4.9c-2.9,0-4.9,2.3-4.9,4.9V165C66.2,167.6,68.5,169.9,71.1,169.9
		z"/>
	<path d="M145.2,50.5h-18.5V47c0-4.3-1.7-8.4-4.9-11.2c-2.9-2.9-7.2-4.6-11.5-4.6l0,0H76.6l0,0c-4.3,0-8.4,1.7-11.5,4.6
		c-3.2,2.9-4.9,7.2-4.9,11.2v3.5H41.7c-7.8,0-14.7,5.8-15.6,13.6c-0.9,7.5,3.5,14.4,10.7,16.7v91.4c0,5.8,2.3,11.2,6.1,15
		c3.7,4,8.9,6.1,14.4,6.1h72.1c5.5,0,10.7-2.3,14.4-6.1c3.7-4,6.1-9.5,6.1-15V80.8c7.2-2.3,11.8-9.2,10.7-16.7
		C159.9,56.3,153.3,50.5,145.2,50.5z M140.3,81.3v90.8c0,6.3-4.6,11.2-10.4,11.2H57.8c-5.8,0-10.4-4.9-10.4-11.2V81.3H140.3z
		 M70.5,50.5V47c0-1.7,0.6-3.2,1.7-4.3c1.2-1.2,2.6-1.7,4.3-1.7l0,0h34l0,0c1.7,0,3.2,0.6,4.3,1.7c1.2,1.2,1.7,2.6,1.7,4.3v3.5H70.5
		z M151,65.8c0,3.2-2.6,5.5-5.8,5.5H42c-3.2,0-5.8-2.6-5.8-5.5c0-2.9,2.6-5.5,5.8-5.5h103.2C148.4,60.3,151,62.9,151,65.8z"/>
	<path d="M93.6,169.9c2.9,0,4.9-2.3,4.9-4.9V94c0-2.6-2.3-4.9-4.9-4.9c-2.9,0-4.9,2.3-4.9,4.9V165C88.7,167.6,91,169.9,93.6,169.9z"
		/>
</g>
</svg>
