<?xml version="1.0" encoding="utf-8"?>
<!-- Generator: Adobe Illustrator 26.3.1, SVG Export Plug-In . SVG Version: 6.00 Build 0)  -->
<svg version="1.1" id="Layer_1" xmlns="http://www.w3.org/2000/svg" xmlns:xlink="http://www.w3.org/1999/xlink" x="0px" y="0px"
	 viewBox="0 0 400 400" style="enable-background:new 0 0 400 400;" xml:space="preserve">
<g>
	<path d="M34.2,54.2c0-1.8,0-3.7,0-5.5C37,42.8,41.7,41,48,41.1c15.2,0.3,30.4,0.1,45.6,0.1c6.7,0,10,2.5,11.9,9
		c1.2,4.2,2.3,8.3,3.5,12.5c1.9,6.5,3.8,13,5.7,19.6c1.7,0,3.1,0,4.5,0c84.3,0,168.5,0,252.8-0.1c6.3,0,10.8,1.8,13.5,7.6
		c0,1.8,0,3.7,0,5.5c-0.5,1.1-1,2.2-1.3,3.4c-13.2,46-26.4,92-39.5,138c-2.2,7.8-5.1,9.9-13.3,9.9c-57.5,0-115,0-172.6,0
		c-0.9,0-1.8-0.1-2.7,0c-0.7,0.1-1.7,0.4-2,0.9c-2.4,4.3-5.1,8.6-2.5,13.8c2.4,4.9,6.7,5.9,11.8,5.9c28.5-0.1,56.9,0,85.4,0
		c28.1,0,56.3,0,84.4,0c6.4,0,11,4.2,11.1,10.1c0.1,6-4.5,10.4-11.1,10.4c-3.8,0-7.5,0-11.3,0c-7.8,0-15.6,0-23.4,0
		c20.3,5.2,26.6,22.1,25.1,34.1c-1.8,15.6-14.6,27.3-30,27.6c-15.7,0.3-28.6-10.7-31.2-26.6c-2.6-15.6,7.1-29.1,25.4-34.8
		c-31.2,0-62,0-93.6,0c17.4,4.5,27.6,18,25.9,33.6c-1.6,15.4-14.2,27.3-29.4,27.8c-15.9,0.6-29-10.3-31.8-26.3
		c-2.7-15.8,6.8-29.2,25.8-35.3c-8.7,0-16.6,0.1-24.4,0c-13.7-0.2-25.6-9.6-29.2-22.8c-2.5-9.3-0.4-17.8,4.3-25.9
		c1.4-2.4,1.6-4.6,0.8-7.4c-13.5-46.6-26.8-93.3-40.1-140c-2.8-9.9-5.7-19.9-8.6-29.9c-13.3,0-26.3-0.2-39.4,0.1
		C41.7,62,37,60.2,34.2,54.2z"/>
</g>
</svg>
