<?xml version="1.0" encoding="utf-8"?>
<!-- Generator: Adobe Illustrator 26.3.1, SVG Export Plug-In . SVG Version: 6.00 Build 0)  -->
<svg version="1.1" id="Layer_1" xmlns="http://www.w3.org/2000/svg" xmlns:xlink="http://www.w3.org/1999/xlink" x="0px" y="0px"
	 viewBox="0 0 400 400" style="enable-background:new 0 0 400 400;" xml:space="preserve">
<g>
	<path d="M196,28.4c2.7,0,5.4,0,8,0c0.2,0.1,0.4,0.3,0.6,0.3c17.5,4.4,25.6,14.8,25.6,33c0,34.6,0,69.3,0,103.9c0,1.3,0,2.6,0,4.3
		c1.6,0,2.9,0,4.2,0c35.4,0,70.8,0,106.3,0c11,0,19.9,4.3,25.8,13.6c2.4,3.8,3.5,8.4,5.2,12.6c0,2.7,0,5.4,0,8
		c-0.1,0.3-0.4,0.6-0.4,0.9c-4.5,17.2-14.9,25.2-32.5,25.2c-34.8,0-69.5,0-104.3,0c-1.3,0-2.6,0-4.2,0c0,1.6,0,2.9,0,4.3
		c0,35.4,0,70.8,0,106.3c0,13.6-7.8,24.8-20.1,29.2c-2,0.7-4,1.2-6.1,1.8c-2.7,0-5.4,0-8,0c-0.2-0.1-0.4-0.3-0.6-0.3
		c-17.6-4.6-25.6-14.8-25.6-33c0-34.6,0-69.3,0-103.9c0-1.3,0-2.6,0-4.3c-1.6,0-2.9,0-4.3,0c-35.4,0-70.8,0-106.3,0
		c-15.3,0-26.9-9.4-30.3-24.3c-0.1-0.6-0.4-1.3-0.6-1.9c0-2.7,0-5.4,0-8c0.2-0.4,0.4-0.8,0.5-1.2c4.2-16.6,14.9-24.9,32.1-24.9
		c34.9,0,69.9,0,104.8,0c1.3,0,2.6,0,4.1,0c0-1.8,0-3.1,0-4.4c0-35.4,0-70.8,0-106.2c0-12.1,5.3-21.3,15.8-27.2
		C188.8,30.3,192.5,29.6,196,28.4z"/>
</g>
</svg>
