<svg width="74" height="69" viewBox="0 0 74 69" fill="none" xmlns="http://www.w3.org/2000/svg">
<path d="M69.1935 25.4614C64.3463 13.0737 51.7841 5.85088 38.6967 7.90878C31.3452 9.07895 25.2459 12.7509 20.6411 18.8035C19.0253 20.9421 17.7328 23.3228 16.7633 25.9456C16.319 27.1561 16.7229 28.1649 17.7732 28.5684C18.8234 28.9719 19.7928 28.4474 20.2371 27.2368C20.2775 27.1965 20.2775 27.1158 20.3179 27.0754C20.3583 26.9947 20.3583 26.9544 20.3987 26.8737C24.3572 17.5123 31.426 12.2667 41.4031 11.379C47.9063 10.7737 53.8441 12.7912 59.1356 17.3105C66.7295 23.807 69.4762 34.8632 65.8408 44.1439C61.7208 54.5947 51.8649 60.6877 40.676 59.6789C35.4249 59.1947 30.6989 57.0561 26.6596 53.3842C23.8321 50.8018 21.6913 47.614 20.3179 43.9421C20.1563 43.5386 19.9544 43.1754 19.712 42.9333C19.1465 42.3281 18.1771 42.2474 17.45 42.6912C16.6825 43.2158 16.4402 44.0632 16.8037 45.1123C20.843 56.2895 31.5876 63.5123 43.14 63.5123C45.0384 63.5123 46.9369 63.3105 48.8354 62.907C61.7611 60.1632 71.1323 48.6632 71.1323 35.5491C71.0515 32.0386 70.4053 28.6088 69.1935 25.4614Z" fill="black"/>
<path d="M41.726 37.486V52.8808H45.2806V37.4053L60.8967 37.4456V33.814L45.2806 33.7737V19.9201H41.726V33.7737H25.5284C18.7828 33.7737 11.9968 33.7737 5.25113 33.7737C4.16052 33.7737 3.47384 34.1772 3.02952 35.0246L2.94873 35.1053V36.0737L3.02952 36.1947C3.55463 37.3246 4.56445 37.4456 5.29153 37.4456C14.2588 37.4456 23.1856 37.4456 32.1529 37.4456L41.726 37.486Z" fill="black"/>
</svg>
