<svg width="49" height="49" viewBox="0 0 49 49" fill="none" xmlns="http://www.w3.org/2000/svg">
<g clip-path="url(#clip0_2_347)">
<path d="M23.1479 0.65271C24.1448 0.65271 25.1417 0.65271 26.1534 0.65271C26.9718 0.756799 27.7901 0.831149 28.6085 0.979848C33.1169 1.75308 37.1045 3.62669 40.5267 6.67501C44.7077 10.3925 47.3115 15.0022 48.2936 20.5189C48.4423 21.3962 48.5465 22.2735 48.6655 23.1509C48.6655 24.1471 48.6655 25.1434 48.6655 26.1546C48.6358 26.2735 48.5911 26.3925 48.5911 26.5114C48.3084 30.2141 47.252 33.6787 45.3177 36.846C41.5087 43.0914 36.0034 46.9278 28.8019 48.281C27.9389 48.4445 27.0462 48.5338 26.1683 48.6527C25.1714 48.6527 24.1745 48.6527 23.1627 48.6527C22.5825 48.5784 21.9873 48.5189 21.407 48.4297C16.6308 47.7456 12.4051 45.8274 8.8044 42.6304C4.63825 38.9278 2.03441 34.333 1.03751 28.8312C0.873835 27.939 0.78456 27.0468 0.665527 26.1546C0.665527 25.1583 0.665527 24.162 0.665527 23.1509C0.739923 22.5709 0.799439 21.9761 0.888714 21.3962C1.64755 16.162 3.84966 11.6416 7.55455 7.86461C11.1553 4.20661 15.4851 1.91665 20.544 1.02446C21.3921 0.860888 22.27 0.771669 23.1479 0.65271ZM30.275 30.2587C30.4981 30.2587 30.6618 30.2587 30.8404 30.2587C33.3847 30.2587 35.929 30.2587 38.4882 30.2587C39.5744 30.2587 40.1249 29.7085 40.1249 28.6081C40.1249 25.9464 40.1249 23.2996 40.1249 20.6378C40.1249 19.5523 39.5744 19.0022 38.4733 19.0022C35.9141 19.0022 33.34 19.0022 30.7808 19.0022C30.6172 19.0022 30.4535 19.0022 30.275 19.0022C30.275 16.2066 30.275 13.5003 30.275 10.7791C30.275 9.72334 29.7244 9.17316 28.6531 9.17316C25.9898 9.17316 23.3413 9.17316 20.6779 9.17316C19.5471 9.17316 19.0115 9.70847 19.0115 10.8386C19.0115 13.3813 19.0115 15.9241 19.0115 18.4817C19.0115 18.6453 19.0115 18.8088 19.0115 19.017C18.7883 19.017 18.6246 19.017 18.4461 19.017C15.9017 19.017 13.3574 19.017 10.7982 19.017C9.69715 19.017 9.1615 19.5672 9.1615 20.6527C9.1615 23.3144 9.1615 25.9613 9.1615 28.623C9.1615 29.7085 9.71203 30.2587 10.7982 30.2587C13.3574 30.2587 15.9315 30.2587 18.4907 30.2587C18.6544 30.2587 18.818 30.2587 18.9966 30.2587C18.9966 30.4966 18.9966 30.675 18.9966 30.8386C18.9966 33.4111 18.9966 35.9984 18.9966 38.5709C18.9966 39.4631 19.562 40.0877 20.425 40.0877C23.2223 40.1025 26.0195 40.1025 28.8168 40.0877C29.6649 40.0877 30.2303 39.478 30.2452 38.6155C30.2601 37.2326 30.2452 35.8349 30.2452 34.452C30.275 33.0839 30.275 31.701 30.275 30.2587Z" fill="#36323E"/>
<path d="M21.8388 37.2624C21.8388 34.556 21.8388 31.8943 21.8388 29.2178C21.8388 29.0245 21.8536 28.846 21.8239 28.6527C21.7197 27.9241 21.1246 27.4482 20.3211 27.4482C17.7321 27.4482 15.1283 27.4482 12.5393 27.4482C12.3757 27.4482 12.1971 27.4482 12.0186 27.4482C12.0186 25.5746 12.0186 23.7308 12.0186 21.8274C12.1822 21.8274 12.3459 21.8274 12.5096 21.8274C15.0688 21.8274 17.628 21.8274 20.2021 21.8274C21.3031 21.8274 21.8536 21.2921 21.8536 20.1917C21.8536 17.649 21.8536 15.1062 21.8536 12.5635C21.8536 12.3999 21.8536 12.2215 21.8536 12.0282C23.7284 12.0282 25.5734 12.0282 27.4779 12.0282C27.4779 12.1917 27.4779 12.3702 27.4779 12.5337C27.4779 15.0765 27.4779 17.6192 27.4779 20.162C27.4779 21.2921 28.0136 21.8274 29.1295 21.8274C31.6739 21.8274 34.2182 21.8274 36.7625 21.8274C36.9262 21.8274 37.1047 21.8274 37.2833 21.8274C37.2833 23.701 37.2833 25.5449 37.2833 27.4482C37.1196 27.4482 36.9559 27.4482 36.7923 27.4482C34.2331 27.4482 31.6739 27.4482 29.0998 27.4482C27.9987 27.4482 27.4482 27.9836 27.4482 29.0839C27.4482 31.6267 27.4482 34.1694 27.4482 36.7122C27.4482 36.8758 27.4482 37.0542 27.4482 37.2475C25.5883 37.2624 23.7433 37.2624 21.8388 37.2624Z" fill="#36323E"/>
</g>
<defs>
<clipPath id="clip0_2_347">
<rect width="48" height="48" fill="white" transform="translate(0.665527 0.65271)"/>
</clipPath>
</defs>
</svg>
