<svg width="49" height="33" viewBox="0 0 49 33" fill="none" xmlns="http://www.w3.org/2000/svg">
<path d="M23.6513 0.64801C23.903 0.64801 24.1546 0.64801 24.397 0.64801C24.4156 0.657332 24.4343 0.675974 24.4529 0.675974C26.0842 1.08611 26.8392 2.05553 26.8392 3.752C26.8392 6.97717 26.8392 10.2117 26.8392 13.4368C26.8392 13.558 26.8392 13.6792 26.8392 13.8376C26.9883 13.8376 27.1095 13.8376 27.2307 13.8376C30.5304 13.8376 33.8301 13.8376 37.1392 13.8376C38.1645 13.8376 38.9941 14.2385 39.5441 15.1053C39.7678 15.4595 39.8703 15.8883 40.0288 16.2798C40.0288 16.5315 40.0288 16.7832 40.0288 17.0255C40.0195 17.0535 39.9915 17.0815 39.9915 17.1094C39.5721 18.7127 38.6026 19.4584 36.9621 19.4584C33.7183 19.4584 30.4838 19.4584 27.24 19.4584C27.1188 19.4584 26.9976 19.4584 26.8485 19.4584C26.8485 19.6075 26.8485 19.7287 26.8485 19.8592C26.8485 23.1589 26.8485 26.4587 26.8485 29.7677C26.8485 31.0354 26.1214 32.0794 24.9749 32.4895C24.7885 32.5548 24.6021 32.6014 24.4063 32.6573C24.1546 32.6573 23.903 32.6573 23.6606 32.6573C23.642 32.648 23.6233 32.6294 23.6047 32.6294C21.9641 32.2006 21.2184 31.2498 21.2184 29.5533C21.2184 26.3282 21.2184 23.0937 21.2184 19.8685C21.2184 19.7473 21.2184 19.6262 21.2184 19.4677C21.0693 19.4677 20.9481 19.4677 20.8176 19.4677C17.5179 19.4677 14.2181 19.4677 10.9091 19.4677C9.48293 19.4677 8.40166 18.5915 8.08474 17.2026C8.07542 17.1467 8.04745 17.0815 8.02881 17.0255C8.02881 16.7738 8.02881 16.5222 8.02881 16.2798C8.04745 16.2425 8.06609 16.2052 8.07542 16.168C8.46691 14.6206 9.46429 13.847 11.0675 13.847C14.3207 13.847 17.5831 13.847 20.8363 13.847C20.9574 13.847 21.0786 13.847 21.2184 13.847C21.2184 13.6792 21.2184 13.558 21.2184 13.4368C21.2184 10.1371 21.2184 6.83735 21.2184 3.53761C21.2184 2.40973 21.7125 1.55218 22.6912 1.00222C22.9802 0.825115 23.3251 0.759866 23.6513 0.64801Z" fill="#FFF"/>
</svg>
