<svg width="40" height="49" viewBox="0 0 40 49" fill="none" xmlns="http://www.w3.org/2000/svg">
<g clip-path="url(#clip0_51_315)">
<path d="M27.1998 42.7449C28.0605 42.7449 28.6541 42.0639 28.6541 41.294V20.2699C28.6541 19.5 27.9715 18.819 27.1998 18.819C26.3392 18.819 25.7456 19.5 25.7456 20.2699V41.294C25.7456 42.0639 26.4282 42.7449 27.1998 42.7449Z" fill="black"/>
<path d="M13.8444 42.7449C14.705 42.7449 15.2986 42.0639 15.2986 41.294V20.2699C15.2986 19.5 14.616 18.819 13.8444 18.819C12.9837 18.819 12.3901 19.5 12.3901 20.2699V41.294C12.3901 42.0639 13.0727 42.7449 13.8444 42.7449Z" fill="black"/>
<path d="M35.8365 7.389H30.346V6.3526C30.346 5.07932 29.8415 3.86525 28.8918 3.03613C28.0311 2.1774 26.7549 1.67401 25.4787 1.67401H15.4771C14.201 1.67401 12.9842 2.1774 12.0641 3.03613C11.1144 3.89486 10.6099 5.16815 10.6099 6.3526V7.389H5.11939C2.80448 7.389 0.75667 9.10646 0.489565 11.4161C0.222459 13.637 1.52831 15.6802 3.66515 16.3612V43.426C3.66515 45.1435 4.34775 46.7425 5.47553 47.8677C6.57363 49.0522 8.1169 49.674 9.74921 49.674H31.1473C32.7796 49.674 34.3229 48.9929 35.421 47.8677C36.5191 46.6833 37.2314 45.0546 37.2314 43.426V16.3612C39.3682 15.6802 40.7334 13.637 40.407 11.4161C40.1992 9.10646 38.2404 7.389 35.8365 7.389ZM34.3823 16.5093V43.3964C34.3823 45.2619 33.017 46.7129 31.2957 46.7129H9.8976C8.17626 46.7129 6.81106 45.2619 6.81106 43.3964V16.5093H34.3823ZM13.6668 7.389V6.3526C13.6668 5.84921 13.8448 5.40504 14.1713 5.07932C14.5274 4.72398 14.9429 4.57592 15.4475 4.57592H25.5381C26.0426 4.57592 26.4878 4.75359 26.8143 5.07932C27.1704 5.43465 27.3188 5.84921 27.3188 6.3526V7.389H13.6668ZM37.5578 11.9195C37.5578 12.8671 36.7862 13.5482 35.8365 13.5482H5.20842C4.25872 13.5482 3.48708 12.7783 3.48708 11.9195C3.48708 11.0608 4.25872 10.2909 5.20842 10.2909H35.8365C36.7862 10.2909 37.5578 11.0608 37.5578 11.9195Z" fill="black"/>
<path d="M20.5221 42.7449C21.3828 42.7449 21.9764 42.0639 21.9764 41.294V20.2699C21.9764 19.5 21.2937 18.819 20.5221 18.819C19.6614 18.819 19.0679 19.5 19.0679 20.2699V41.294C19.0679 42.0639 19.7505 42.7449 20.5221 42.7449Z" fill="black"/>
</g>
<defs>
<clipPath id="clip0_51_315">
<rect width="39.2258" height="48" fill="white" transform="translate(0.455078 0.790619)"/>
</clipPath>
</defs>
</svg>
