<svg width="49" height="49" viewBox="0 0 49 49" fill="none" xmlns="http://www.w3.org/2000/svg">
<g clip-path="url(#clip0_2_344)">
<path d="M0.847168 2.69271C0.847168 2.41249 0.847168 2.1167 0.847168 1.83648C1.22975 0.917972 1.87193 0.637751 2.73274 0.653318C4.80959 0.700022 6.88645 0.668887 8.96331 0.668887C9.87877 0.668887 10.3297 1.05808 10.5893 2.06999C10.7532 2.72384 10.9035 3.36213 11.0675 4.01598C11.3271 5.02789 11.5867 6.0398 11.8463 7.06728C12.0786 7.06728 12.2699 7.06728 12.4612 7.06728C23.9795 7.06728 35.4842 7.06728 47.0026 7.05171C47.8634 7.05171 48.4783 7.33193 48.8472 8.23487C48.8472 8.51509 48.8472 8.81088 48.8472 9.0911C48.7789 9.26235 48.7105 9.43359 48.6695 9.62041C46.866 16.7816 45.0624 23.9428 43.2724 31.1041C42.9719 32.3184 42.5756 32.6453 41.4552 32.6453C33.5987 32.6453 25.7421 32.6453 17.8719 32.6453C17.749 32.6453 17.626 32.6297 17.503 32.6453C17.4074 32.6608 17.2707 32.7076 17.2297 32.7854C16.9018 33.4548 16.5329 34.1242 16.8882 34.9338C17.2161 35.6966 17.8036 35.8523 18.5005 35.8523C22.3946 35.8367 26.275 35.8523 30.1691 35.8523C34.0086 35.8523 37.8617 35.8523 41.7011 35.8523C42.5756 35.8523 43.2041 36.5061 43.2178 37.4246C43.2315 38.3587 42.6029 39.0437 41.7011 39.0437C41.1819 39.0437 40.6764 39.0437 40.1572 39.0437C39.0914 39.0437 38.0257 39.0437 36.9599 39.0437C39.7336 39.8532 40.5944 42.4842 40.3894 44.3523C40.1435 46.7809 38.3946 48.6023 36.2904 48.649C34.1452 48.6957 32.3826 46.9833 32.0274 44.508C31.6721 42.0794 32.9975 39.9777 35.4979 39.0904C31.2349 39.0904 27.0265 39.0904 22.7088 39.0904C25.0863 39.7909 26.48 41.8926 26.2477 44.3212C26.0291 46.7186 24.3075 48.5712 22.2306 48.649C20.0581 48.7424 18.2682 47.0456 17.8856 44.5547C17.5167 42.095 18.8147 40.0089 21.4108 39.0592C20.2221 39.0592 19.1426 39.0748 18.0769 39.0592C16.205 39.0281 14.579 37.5647 14.0871 35.5098C13.7455 34.062 14.0325 32.7387 14.6747 31.4777C14.866 31.1041 14.8933 30.7616 14.784 30.3257C12.9394 23.071 11.1221 15.8008 9.3049 8.53066C8.92232 6.98944 8.52608 5.43265 8.12983 3.87587C6.31258 3.87587 4.53632 3.84473 2.7464 3.89143C1.87193 3.907 1.22975 3.62678 0.847168 2.69271Z" fill="rgba(79, 131, 241, 1)"/>
</g>
<defs>
<clipPath id="clip0_2_344">
<rect width="48" height="48" fill="blue" transform="translate(0.847168 0.65271)"/>
</clipPath>
</defs>
</svg>
