<svg width="41" height="49" viewBox="0 0 41 49" fill="none" xmlns="http://www.w3.org/2000/svg">
<g clip-path="url(#clip0_51_314)">
<path d="M2.33088 47.5481C1.45751 47.2914 0.758825 46.778 0.51865 45.8582C0.0819688 44.3181 1.13 43.0561 2.68022 43.0561C6.15184 43.0561 9.62345 43.0561 13.0951 43.0561C21.3265 43.0561 29.4924 43.0561 37.7239 43.0561C39.2086 43.0561 40.3221 44.1684 40.1475 45.6016C40.0601 46.4572 39.5361 47.0561 38.6628 47.2914C38.4881 47.377 38.3134 47.377 38.1387 47.4625C26.2828 47.5481 14.2959 47.5481 2.33088 47.5481Z" fill="black"/>
<path d="M40.4093 10.8208C40.4093 13.1096 39.536 15.1631 37.8984 16.7673C31.0425 23.4839 24.1866 30.2005 17.4181 36.8315C16.4574 37.7727 15.3438 38.2005 14.0338 38.4358C11.3482 38.9492 8.74993 39.4625 6.04251 39.9759C3.44426 40.4893 0.758666 38.6069 0.409321 36.0615C0.234648 34.8636 0.583993 33.7727 0.846002 32.6604C1.28268 30.5427 1.71936 28.4037 2.24338 26.2861C2.50539 25.1738 2.94207 24.3395 3.7281 23.4839C10.584 16.7673 17.4399 9.9652 24.2958 3.24862C27.6801 -0.0668887 33.2259 0.0186729 36.5229 3.41974C37.0469 3.93311 37.5709 4.44648 38.0949 5.02402C39.7325 6.67108 40.4093 8.6176 40.4093 10.8208ZM5.10364 35.4839C5.27832 35.4839 5.36565 35.4839 5.45299 35.4839C8.13858 35.0561 10.8242 34.6283 13.5316 34.1149C13.7063 34.1149 13.9683 33.9438 14.0556 33.8582C20.9115 27.1417 27.6801 20.4251 34.536 13.7085C36.1735 12.1042 36.1735 9.9652 34.536 8.36092C33.9246 7.76199 33.4006 7.24862 32.8111 6.67108C31.3264 5.21653 28.9028 5.21653 27.4399 6.67108C20.5403 13.3877 13.7718 20.1042 6.93771 26.7139C6.85037 26.7994 6.6757 26.9705 6.6757 27.1417C6.23902 29.8582 5.715 32.6818 5.10364 35.4839Z" fill="black"/>
</g>
<defs>
<clipPath id="clip0_51_314">
<rect width="40" height="48" fill="white" transform="translate(0.40918 0.831512)"/>
</clipPath>
</defs>
</svg>
