<svg width="49" height="47" viewBox="0 0 49 47" fill="none" xmlns="http://www.w3.org/2000/svg">
<g clip-path="url(#clip0_2_346)">
<path d="M0.256348 18.8788C0.256348 18.6287 0.256348 18.3786 0.256348 18.1286C0.618942 17.3659 1.2316 17.0783 2.05682 17.0658C3.05708 17.0533 4.05734 16.9407 5.04509 16.8657C8.8961 16.5907 12.7471 16.3156 16.5856 16.0655C16.9482 16.0405 17.1232 15.928 17.2608 15.5779C19.1113 10.9642 20.9742 6.35049 22.8372 1.73679C23.1498 0.974089 23.5499 0.674011 24.2501 0.674011C24.9628 0.674011 25.3504 0.974089 25.663 1.73679C27.5259 6.36299 29.4014 10.9892 31.2644 15.6279C31.3644 15.878 31.452 16.0405 31.7771 16.0655C36.6908 16.3906 41.5921 16.7532 46.5059 17.0658C47.3186 17.1158 47.9063 17.3909 48.2563 18.1286C48.2563 18.3786 48.2563 18.6287 48.2563 18.8788C47.9938 19.2038 47.7687 19.5664 47.4561 19.829C43.8552 22.9048 40.2543 25.9806 36.6158 29.0064C36.0032 29.5065 35.8906 29.9316 36.0907 30.6818C37.291 35.333 38.4413 39.9968 39.6041 44.6605C39.6666 44.923 39.7166 45.2231 39.6791 45.4857C39.5041 46.536 38.3913 46.9611 37.4285 46.3484C33.1649 43.6852 28.9013 41.022 24.6502 38.3463C24.3501 38.1588 24.1626 38.1713 23.8625 38.3463C20.7492 40.3093 17.6234 42.2598 14.4976 44.2104C13.3348 44.9355 12.172 45.6732 10.9966 46.3859C10.1089 46.9236 9.05864 46.536 8.85859 45.5607C8.78357 45.2481 8.84608 44.873 8.93361 44.5479C10.1214 39.7467 11.3217 34.9454 12.5345 30.1567C12.6346 29.7566 12.5345 29.544 12.2345 29.294C8.5335 26.1682 4.83254 23.0423 1.15658 19.8915C0.818994 19.6289 0.556426 19.2288 0.256348 18.8788Z" fill="#36323E"/>
</g>
<defs>
<clipPath id="clip0_2_346">
<rect width="48" height="45.9573" fill="white" transform="translate(0.256348 0.674011)"/>
</clipPath>
</defs>
</svg>
