<svg width="50" height="49" viewBox="0 0 50 49" fill="none" xmlns="http://www.w3.org/2000/svg">
<path d="M27.5169 6.61881C20.7915 6.61881 14.1203 6.61881 7.42199 6.61881C7.42199 18.4697 7.42199 30.3205 7.42199 42.1713C14.1203 42.1713 20.7644 42.1713 27.5169 42.1713C27.5169 41.412 27.5169 40.6256 27.5169 39.8663C27.544 38.1578 29.2796 37.0459 30.7983 37.751C31.5305 38.1035 32.0728 38.673 32.1 39.4866C32.1813 40.8425 32.2356 42.1985 32.0728 43.5273C31.8288 45.5069 30.2017 46.8086 28.1949 46.8086C23.0423 46.8086 17.9169 46.8086 12.7644 46.8086C10.7576 46.8086 8.77793 46.8086 6.77115 46.8086C4.38471 46.8086 2.73047 45.1544 2.73047 42.7408C2.73047 30.4832 2.73047 18.2256 2.73047 5.96796C2.73047 3.5544 4.38471 1.90016 6.79827 1.90016C13.9033 1.90016 20.9813 1.90016 28.0864 1.90016C30.4728 1.90016 32.1271 3.5544 32.1542 5.94084C32.1542 6.88999 32.1542 7.83915 32.1542 8.7883C32.1542 10.1442 31.1237 11.1747 29.822 11.1747C28.5203 11.1747 27.5169 10.1442 27.5169 8.7883C27.5169 8.13745 27.5169 7.40525 27.5169 6.61881Z" fill="black"/>
<path d="M39.6933 26.7408C39.395 26.7408 39.2322 26.7408 39.0424 26.7408C30.8797 26.7408 22.6899 26.7408 14.5272 26.7408C13.0628 26.7408 12.0051 25.7375 12.0322 24.3544C12.0594 23.1612 13.0085 22.1578 14.2017 22.1036C14.3916 22.1036 14.5543 22.1036 14.7441 22.1036C22.8526 22.1036 30.9611 22.1036 39.0695 22.1036C39.2322 22.1036 39.4221 22.1036 39.6661 22.1036C39.5034 21.9408 39.4221 21.8053 39.3136 21.6968C37.8492 20.2324 36.3848 18.7951 34.9475 17.3036C33.7 16.029 34.1882 13.968 35.8695 13.4527C36.7916 13.1815 37.6051 13.4256 38.3102 14.1036C39.9645 15.7578 41.6187 17.412 43.2729 19.0663C44.4661 20.2595 45.6594 21.4527 46.8526 22.6459C47.9102 23.7036 47.9102 25.0595 46.8797 26.1171C44.0322 28.9917 41.1577 31.8392 38.2831 34.7137C36.9543 36.0425 34.8661 35.5815 34.3509 33.8459C34.0526 32.9239 34.3238 32.1103 35.0017 31.4053C36.439 29.9951 37.8492 28.5578 39.2865 27.1205C39.395 27.0392 39.5034 26.9307 39.6933 26.7408Z" fill="black"/>
</svg>
