<svg width="49" height="47" viewBox="0 0 49 47" fill="none" xmlns="http://www.w3.org/2000/svg">
<path d="M1.43799 12.144C1.43799 11.7772 1.43799 11.4214 1.43799 11.0545C1.44996 11.0323 1.48589 11.0101 1.48589 10.9878C2.09667 8.73107 3.5817 7.65271 6.0847 7.65271C18.3122 7.65271 30.5398 7.65271 42.7673 7.65271C42.935 7.65271 43.1027 7.65271 43.2584 7.65271C45.0907 7.75276 46.3841 8.58655 47.1146 10.1429C47.2464 10.432 47.3182 10.7433 47.414 11.0434C47.414 11.4103 47.414 11.766 47.414 12.1329C47.3063 12.4442 47.2224 12.7666 47.0907 13.0779C46.4081 14.6343 44.8871 15.5125 42.8751 15.5125C35.1625 15.5125 27.4619 15.5125 19.7494 15.5125C15.1506 15.5125 10.5637 15.5014 5.96493 15.5125C4.69547 15.5125 3.5817 15.179 2.65955 14.3452C2.00086 13.7449 1.66553 12.9778 1.43799 12.144Z" fill="#36323E"/>
<path d="M1.43799 36.2459C1.43799 35.8791 1.43799 35.5233 1.43799 35.1565C1.50984 34.923 1.5817 34.6784 1.66553 34.445C2.28829 32.744 3.86913 31.7769 6.01284 31.7769C18.2883 31.7769 30.5757 31.7769 42.8512 31.7769C43.0907 31.7769 43.3302 31.788 43.5697 31.8102C45.2943 31.9325 46.7793 33.0664 47.2464 34.6117C47.3063 34.8007 47.3661 34.9786 47.426 35.1565C47.426 35.5233 47.426 35.8791 47.426 36.2459C47.414 36.2682 47.3781 36.2904 47.3781 36.3126C46.7673 38.5694 45.2823 39.6478 42.7793 39.6478C31.3901 39.6478 20.0009 39.6478 8.61164 39.6478C7.66553 39.6478 6.7314 39.6589 5.78529 39.6478C4.44398 39.6367 3.31823 39.1809 2.432 38.2248C1.8811 37.6467 1.64158 36.9574 1.43799 36.2459Z" fill="#36323E"/>
<path d="M1.43799 24.2283C1.43799 23.8392 1.43799 23.4501 1.43799 23.061C1.46194 23.0388 1.48589 23.0277 1.49787 23.0055C2.14458 20.7487 3.5817 19.7259 6.09667 19.7259C15.5697 19.7259 25.0428 19.7259 34.5158 19.7259C37.438 19.7259 40.3482 19.7148 43.2703 19.737C45.0787 19.7481 46.6356 20.8154 47.2104 22.4051C47.3063 22.6497 47.3661 22.9054 47.438 23.1611C47.438 23.4946 47.438 23.8281 47.438 24.1616C47.426 24.195 47.4021 24.2395 47.3901 24.2728C46.6955 26.6185 45.3182 27.5857 42.6955 27.5857C34.9589 27.5857 27.2224 27.5857 19.4859 27.5857C14.923 27.5857 10.3601 27.5857 5.79727 27.5857C3.85715 27.5857 2.27631 26.5407 1.67751 24.9065C1.5817 24.673 1.50984 24.4507 1.43799 24.2283Z" fill="#36323E"/>
</svg>
