<svg width="49" height="49" viewBox="0 0 49 49" fill="none" xmlns="http://www.w3.org/2000/svg">
<g clip-path="url(#clip0_2_348)">
<g clip-path="url(#clip1_2_348)">
<path d="M48.0599 13.6752C47.8967 14.6393 47.8077 15.6182 47.5703 16.5674C47.14 18.3769 46.2795 19.9788 45.0778 21.3878C44.2618 22.3519 43.3716 23.2567 42.5259 24.2059C42.3479 24.3987 42.2143 24.4432 41.9621 24.3542C39.5883 23.405 37.1402 23.1083 34.6032 23.5088C32.3926 23.8648 30.3896 24.725 28.5796 26.0451C28.3274 26.223 28.09 26.4159 27.8823 26.579C23.9209 22.6189 19.9744 18.6736 15.9834 14.6838C16.1466 14.5503 16.3395 14.3871 16.5175 14.224C19.737 11.0054 22.9566 7.80173 26.1761 4.58319C27.7042 3.05549 29.4549 1.88376 31.532 1.26082C32.4519 0.993846 33.4163 0.845526 34.3658 0.65271C35.0186 0.65271 35.6863 0.65271 36.3391 0.65271C37.5112 0.934518 38.7426 1.08284 39.8702 1.51296C43.8612 3.05549 46.4427 5.9329 47.5851 10.0562C47.8522 10.9906 47.9115 11.9843 48.0747 12.9484C48.0599 13.1709 48.0599 13.423 48.0599 13.6752Z" fill="rgba(79, 131, 241, 1)"/>
<path d="M48.0597 37.8662C47.8224 38.9934 47.7333 40.1651 47.3179 41.233C45.7601 45.297 42.7631 47.6849 38.4902 48.4562C38.416 48.471 38.3418 48.4562 38.2231 48.4562C38.2231 41.0995 38.2231 33.728 38.2231 26.2527C38.9353 26.4307 39.6474 26.5494 40.3003 26.7718C44.3655 28.2105 46.8728 31.0583 47.8224 35.2557C47.9411 35.8045 47.9856 36.3681 48.0597 36.9169C48.0597 37.2284 48.0597 37.5547 48.0597 37.8662Z" fill="rgba(79, 131, 241, 1)"/>
<path d="M14.0249 16.7454C17.9566 20.7055 21.8735 24.6657 25.7903 28.611C25.3007 29.3971 24.7666 30.1535 24.3215 30.9841C22.4076 34.6476 22.1999 38.4298 23.6093 42.3009C23.7874 42.7755 23.7429 43.0573 23.3719 43.3836C22.2889 44.3477 21.3097 45.4453 20.1524 46.3056C17.4225 48.3079 14.3217 48.9901 10.9686 48.5007C7.34852 47.9667 4.47024 46.2017 2.36346 43.2205C0.464387 40.5359 -0.232929 37.525 0.19733 34.2471C0.568242 31.3697 1.84418 28.9373 3.87678 26.8905C7.15565 23.5978 10.4642 20.3051 13.7431 17.0124C13.8172 16.9234 13.8914 16.8641 14.0249 16.7454Z" fill="rgba(79, 131, 241, 1)"/>
<path d="M35.3597 26.3565C35.3597 33.7132 35.3597 41.055 35.3597 48.5007C31.9028 47.9816 29.158 46.3501 27.3183 43.4133C24.9148 39.557 24.8851 35.5672 27.1551 31.6219C29.069 28.2847 32.7336 26.4752 35.3597 26.3565Z" fill="rgba(79, 131, 241, 1)"/>
</g>
</g>
<defs>
<clipPath id="clip0_2_348">
<rect width="48" height="48" fill="white" transform="translate(0.074707 0.65271)"/>
</clipPath>
<clipPath id="clip1_2_348">
<rect width="48" height="48" fill="white" transform="translate(0.074707 0.65271)"/>
</clipPath>
</defs>
</svg>
