<svg width="81" height="49" viewBox="0 0 81 49" fill="none" xmlns="http://www.w3.org/2000/svg">
<path d="M72.6874 22.9C72.1618 22.2018 60.1172 5.31453 40.8459 5.31453C24.3339 5.31453 9.74898 22.0273 9.1358 22.7254C8.47882 23.5109 8.47882 24.6018 9.1358 25.3873C9.74898 26.0854 24.3339 42.7982 40.8459 42.7982C57.3141 42.7982 71.9428 26.0854 72.556 25.3873C73.1692 24.6891 73.213 23.6854 72.6874 22.9ZM68.2199 23.9473C64.3219 27.9618 52.8905 38.6964 40.8459 38.6964C28.8889 38.6964 17.5013 28.0927 13.5594 24.0345C17.5013 20.02 28.8889 9.41635 40.8459 9.41635C54.8176 9.41635 64.8913 19.9327 68.2199 23.9473Z" fill="black"/>
<path d="M40.8461 13.0382C34.6267 13.0382 29.5898 18.0127 29.5898 24.0782C29.5898 30.1873 34.6267 35.1182 40.8461 35.1182C47.0654 35.1182 52.1023 30.1436 52.1023 24.0782C52.1023 17.9691 47.0654 13.0382 40.8461 13.0382ZM47.9414 24.0782C47.9414 27.9182 44.7879 31.0163 40.8898 31.0163C36.9918 31.0163 33.8383 27.9182 33.8383 24.0782C33.8383 20.2382 36.9918 17.14 40.8898 17.14C44.7879 17.14 47.9414 20.2382 47.9414 24.0782Z" fill="black"/>
</svg>
